<?xml version="1.0" encoding="utf-8" standalone="no"?>
<!DOCTYPE svg PUBLIC "-//W3C//DTD SVG 1.1//EN" "http://www.w3.org/Graphics/SVG/1.1/DTD/svg11.dtd">

<svg width="148mm" height="210mm" viewBox="0 0 148 210" xmlns="http://www.w3.org/2000/svg" xmlns:xlink="http://www.w3.org/1999/xlink" version="1.1" style="stroke:black; fill:none; stroke-width:0.5pt; stroke-linejoin:round; text-anchor:middle" font-family="Helvetica, Arial, FreeSans, Sans, sans, sans-serif">

<g>

<path d="M2.0,21.0 A12.0,12.0 0,0,1 14.0,9.0 A12.0,12.0 0,0,1 26.0,21.0 L26.0,33.0 L14.0,33.0 A12.0,12.0 0,0,1 2.0,21.0 " fill="black" stroke="none" />

<path d="M2.0,69.0 A12.0,12.0 0,0,1 14.0,57.0 L26.0,57.0 L26.0,69.0 L26.0,81.0 L14.0,81.0 A12.0,12.0 0,0,1 2.0,69.0 " fill="black" stroke="none" />

<path d="M2.0,117.0 A12.0,12.0 0,0,1 14.0,105.0 L26.0,105.0 L26.0,117.0 L26.0,129.0 L14.0,129.0 A12.0,12.0 0,0,1 2.0,117.0 " fill="black" stroke="none" />

<path d="M2.0,165.0 A12.0,12.0 0,0,1 14.0,153.0 L26.0,153.0 L26.0,165.0 L26.0,177.0 L14.0,177.0 A12.0,12.0 0,0,1 2.0,165.0 " fill="black" stroke="none" />

<rect x="26.0" y="33.0" width="24.0" height="24.0" fill="black" stroke="none" />

<rect x="26.0" y="81.0" width="24.0" height="24.0" fill="black" stroke="none" />

<rect x="26.0" y="129.0" width="24.0" height="24.0" fill="black" stroke="none" />

<path d="M26.0,189.0 L26.0,177.0 L38.0,177.0 L50.0,177.0 L50.0,189.0 A12.0,12.0 0,0,1 38.0,201.0 A12.0,12.0 0,0,1 26.0,189.0 " fill="black" stroke="none" />

<path d="M50.0,21.0 A12.0,12.0 0,0,1 62.0,9.0 A12.0,12.0 0,0,1 74.0,21.0 L74.0,33.0 L62.0,33.0 L50.0,33.0 L50.0,21.0 " fill="black" stroke="none" />

<rect x="50.0" y="57.0" width="24.0" height="24.0" fill="black" stroke="none" />

<rect x="50.0" y="105.0" width="24.0" height="24.0" fill="black" stroke="none" />

<rect x="50.0" y="153.0" width="24.0" height="24.0" fill="black" stroke="none" />

<rect x="74.0" y="33.0" width="24.0" height="24.0" fill="black" stroke="none" />

<rect x="74.0" y="81.0" width="24.0" height="24.0" fill="black" stroke="none" />

<rect x="74.0" y="129.0" width="24.0" height="24.0" fill="black" stroke="none" />

<path d="M74.0,189.0 L74.0,177.0 L86.0,177.0 L98.0,177.0 L98.0,189.0 A12.0,12.0 0,0,1 86.0,201.0 A12.0,12.0 0,0,1 74.0,189.0 " fill="black" stroke="none" />

<path d="M98.0,21.0 A12.0,12.0 0,0,1 110.0,9.0 A12.0,12.0 0,0,1 122.0,21.0 L122.0,33.0 L110.0,33.0 L98.0,33.0 L98.0,21.0 " fill="black" stroke="none" />

<rect x="98.0" y="57.0" width="24.0" height="24.0" fill="black" stroke="none" />

<rect x="98.0" y="105.0" width="24.0" height="24.0" fill="black" stroke="none" />

<rect x="98.0" y="153.0" width="24.0" height="24.0" fill="black" stroke="none" />

<path d="M122.0,45.0 L122.0,33.0 L134.0,33.0 A12.0,12.0 0,0,1 146.0,45.0 A12.0,12.0 0,0,1 134.0,57.0 L122.0,57.0 L122.0,45.0 " fill="black" stroke="none" />

<path d="M122.0,93.0 L122.0,81.0 L134.0,81.0 A12.0,12.0 0,0,1 146.0,93.0 A12.0,12.0 0,0,1 134.0,105.0 L122.0,105.0 L122.0,93.0 " fill="black" stroke="none" />

<path d="M122.0,141.0 L122.0,129.0 L134.0,129.0 A12.0,12.0 0,0,1 146.0,141.0 A12.0,12.0 0,0,1 134.0,153.0 L122.0,153.0 L122.0,141.0 " fill="black" stroke="none" />

<path d="M122.0,189.0 L122.0,177.0 L134.0,177.0 A12.0,12.0 0,0,1 146.0,189.0 A12.0,12.0 0,0,1 134.0,201.0 A12.0,12.0 0,0,1 122.0,189.0 " fill="black" stroke="none" />

<circle cx="62.0" cy="117.0" r="4.08" fill="white" stroke="none" />

<circle cx="86.0" cy="93.0" r="4.08" fill="white" stroke="none" />

<circle cx="86.0" cy="117.0" r="4.08" fill="black" stroke="none" />

</g>

</svg>

